<svg width="42" height="42" viewBox="0 0 42 42" fill="none" xmlns="http://www.w3.org/2000/svg">
<mask id="mask0_19_369" style="mask-type:alpha" maskUnits="userSpaceOnUse" x="0" y="0" width="42" height="42">
<path d="M24.4773 10.689C24.409 10.7083 11.8283 15.701 11.8283 15.701C10.8929 16.0658 10.0944 16.7131 9.54392 17.5528C8.99344 18.3924 8.71832 19.3828 8.75682 20.3861C8.79532 21.3894 9.14553 22.3557 9.75873 23.1507C10.3719 23.9458 11.2176 24.5299 12.1783 24.822L16.2838 25.8493L17.6365 30.2663C17.9964 31.1491 18.6114 31.9045 19.4029 32.436C20.1944 32.9675 21.1264 33.2509 22.0798 33.25H22.1568C23.1246 33.2375 24.066 32.9323 24.8569 32.3743C25.6479 31.8164 26.2513 31.0321 26.5878 30.1245C26.5878 30.1245 31.3005 17.5858 31.3128 17.5245C31.5609 16.5784 31.557 15.5838 31.3013 14.6397C31.0456 13.6955 30.547 12.8349 29.8553 12.1433C29.1636 11.4518 28.3028 10.9535 27.3586 10.698C26.4144 10.4425 25.4198 10.4388 24.4738 10.6873L24.4773 10.689ZM27.9475 16.5673L23.3135 28.8925C23.2243 29.1426 23.0601 29.3591 22.8435 29.5125C22.6268 29.666 22.368 29.7489 22.1025 29.75C21.9275 29.729 21.1838 29.7045 20.9213 29.0885L19.3323 23.8805C19.2445 23.5916 19.0834 23.3304 18.8648 23.1222C18.6461 22.914 18.3773 22.7659 18.0845 22.6923L13.153 21.4673C12.8935 21.3789 12.6674 21.2128 12.5057 20.9914C12.344 20.7699 12.2545 20.5041 12.2493 20.23C12.2442 19.9558 12.3236 19.6868 12.4769 19.4594C12.6301 19.2321 12.8497 19.0575 13.1058 18.9595L25.4608 14.0595C25.801 13.9782 26.1566 13.9872 26.4923 14.0854C26.8281 14.1836 27.1324 14.3677 27.3753 14.6195C27.6289 14.8684 27.8146 15.178 27.9148 15.5189C28.015 15.8599 28.0262 16.2207 27.9475 16.5673ZM21 0C16.8466 0 12.7865 1.23163 9.33303 3.53914C5.8796 5.84665 3.18798 9.1264 1.59854 12.9636C0.00909901 16.8009 -0.406771 21.0233 0.403519 25.0969C1.21381 29.1705 3.21386 32.9123 6.15077 35.8492C9.08767 38.7861 12.8295 40.7862 16.9031 41.5965C20.9767 42.4068 25.1991 41.9909 29.0364 40.4015C32.8736 38.812 36.1534 36.1204 38.4609 32.667C40.7684 29.2135 42 25.1534 42 21C41.994 15.4323 39.7796 10.0944 35.8426 6.15741C31.9056 2.22045 26.5677 0.00602189 21 0V0ZM21 38.5C17.5388 38.5 14.1554 37.4736 11.2775 35.5507C8.39967 33.6278 6.15665 30.8947 4.83212 27.697C3.50758 24.4993 3.16103 20.9806 3.83627 17.5859C4.51151 14.1913 6.17822 11.0731 8.62564 8.62563C11.0731 6.17821 14.1913 4.5115 17.5859 3.83626C20.9806 3.16102 24.4993 3.50758 27.697 4.83211C30.8947 6.15664 33.6278 8.39966 35.5507 11.2775C37.4737 14.1554 38.5 17.5388 38.5 21C38.4949 25.6397 36.6495 30.088 33.3688 33.3687C30.088 36.6495 25.6397 38.4949 21 38.5Z" fill="black"/>
</mask>
<g mask="url(#mask0_19_369)">
<rect x="-38" y="-21" width="103" height="93" fill="#D07F7B"/>
</g>
</svg>
